# xmcd CD database file
#
# Track frame offsets:
#	187
#	12312
#	46787
#	82637
#	112512
#
# Disc length: 2327 seconds
#
# Revision: 0
# Processed by: cddbd v1.5.2PL0 Copyright (c) Steve Scherf et al.
# Submitted via: CDex 1.51
#
DISCID=21091505
DTITLE=Hannibal Marvin Peterson - Hannibal
DYEAR=1975
DGENRE=Jazz
TTITLE0=The Rabbit
TTITLE1=Revelation
TTITLE2=Misty
TTITLE3=The Voyage
TTITLE4=Soul Brother-In Dedication To Malcom X
EXTD=YEAR: 1975
EXTT0=
EXTT1=
EXTT2=
EXTT3=
EXTT4=
PLAYORDER=
